# Blender 4.1.1
# www.blender.org
mtllib tron.mtl
o Cube
v -3.729514 0.302911 -3.692910
v -3.729514 -0.302911 -3.692910
v -3.729514 0.302911 3.692910
v -3.729514 -0.302911 3.692910
v 3.729514 0.302911 -3.692910
v 3.729514 -0.302911 -3.692910
v 3.729514 0.302911 3.692910
v 3.729514 -0.302911 3.692910
v 0.000000 0.302911 3.692910
v -3.729514 0.302911 0.000000
v 3.729514 0.302911 0.000000
v 0.000000 0.302911 -3.692910
v 0.000000 4.524282 -0.923227
v 1.864757 0.302911 3.692910
v -3.729514 0.302911 1.846455
v 3.729514 0.302911 -1.846455
v -1.864757 0.302911 -3.692910
v -1.864757 0.302911 3.692910
v -3.729514 0.302911 -1.846455
v 3.729514 0.302911 1.846455
v 1.864757 0.302911 -3.692910
v 0.000000 0.302911 1.846455
v 0.000000 0.302911 -1.846455
v -1.864757 0.302911 0.000000
v 1.864757 0.302911 0.000000
v 1.864757 0.302911 -1.846455
v -1.864757 0.302911 -1.846455
v -1.864757 0.302911 1.846455
v 1.864757 0.302911 1.846455
v 1.864757 2.560955 3.692910
v 3.729514 2.560955 3.692910
v -3.729514 2.560955 1.846455
v -3.729514 2.560955 3.692910
v 3.729514 2.560955 -1.846455
v 3.729514 2.560955 -3.692910
v -1.864757 2.560955 -3.692910
v -3.729514 2.560955 -3.692910
v -1.864757 2.560955 3.692910
v -3.729514 2.560955 -1.846455
v 3.729514 2.560955 1.846455
v 1.864757 2.560955 -3.692910
v 1.864757 2.560955 -1.846455
v -1.864757 2.560955 -1.846455
v -1.864757 2.560955 1.846455
v 1.864757 2.560955 1.846455
v 0.000000 4.524282 -1.846455
v 1.864757 4.524282 0.000000
v 0.000000 4.524282 1.846455
v -1.864757 4.524282 0.000000
v 1.864757 4.524282 -1.846455
v -1.864757 4.524282 -1.846455
v -1.864757 4.524282 1.846455
v 1.864757 4.524282 1.846455
v 0.932379 4.524282 0.000000
v 0.000000 4.524282 0.923227
v -0.932379 4.524282 0.000000
v 1.864757 4.524282 -0.923227
v 0.932379 4.524282 -1.846455
v -1.864757 4.524282 -0.923227
v -0.932379 4.524282 -1.846455
v -1.864757 4.524282 0.923227
v -0.932379 4.524282 1.846455
v 1.864757 4.524282 0.923227
v 0.932379 4.524282 1.846455
v 0.932379 4.524282 0.923227
v -0.932379 4.524282 0.923227
v 0.932379 4.524282 -0.923227
v -0.932379 4.524282 -0.923227
v 0.000000 3.807740 -0.923227
v 0.000000 3.807740 0.000000
v 0.932379 3.807740 0.000000
v 0.000000 3.807740 0.923227
v -0.932379 3.807740 0.000000
v 0.932379 3.807740 0.923227
v -0.932379 3.807740 0.923227
v 0.932379 3.807740 -0.923227
v -0.932379 3.807740 -0.923227
vn -0.0000 -0.0000 -1.0000
vn -0.0000 -0.0000 1.0000
vn 1.0000 -0.0000 -0.0000
vn -0.0000 -1.0000 -0.0000
vn -1.0000 -0.0000 -0.0000
vn -0.0000 1.0000 -0.0000
vt 0.625000 0.500000
vt 0.625000 0.437500
vt 0.375000 0.750000
vt 0.625000 0.750000
vt 0.625000 0.812500
vt 0.625000 0.875000
vt 0.625000 0.937500
vt 0.625000 1.000000
vt 0.375000 1.000000
vt 0.375000 0.000000
vt 0.625000 0.000000
vt 0.625000 0.062500
vt 0.625000 0.125000
vt 0.625000 0.187500
vt 0.625000 0.250000
vt 0.375000 0.250000
vt 0.125000 0.500000
vt 0.375000 0.500000
vt 0.125000 0.750000
vt 0.625000 0.562500
vt 0.625000 0.625000
vt 0.625000 0.687500
vt 0.625000 0.312500
vt 0.625000 0.375000
vt 0.687500 0.687500
vt 0.750000 0.687500
vt 0.750000 0.750000
vt 0.687500 0.750000
vt 0.750000 0.562500
vt 0.812500 0.562500
vt 0.781250 0.562500
vt 0.875000 0.562500
vt 0.875000 0.625000
vt 0.812500 0.625000
vt 0.812500 0.687500
vt 0.812500 0.656250
vt 0.750000 0.500000
vt 0.812500 0.500000
vt 0.875000 0.687500
vt 0.687500 0.562500
vt 0.687500 0.625000
vt 0.687500 0.500000
vt 0.687500 0.593750
vt 0.812500 0.750000
vt 0.781250 0.687500
vt 0.875000 0.750000
vt 0.875000 0.500000
vt 0.718750 0.656250
vt 0.718750 0.625000
vt 0.781250 0.593750
vt 0.812500 0.593750
vt 0.781250 0.625000
vt 0.750000 0.656250
vt 0.718750 0.687500
vt 0.781250 0.656250
vt 0.687500 0.656250
vt 0.718750 0.562500
vt 0.718750 0.593750
vt 0.750000 0.593750
vt 0.750000 0.625000
s 0
usemtl Material
f 1/1/1 37/1/1 36/2/1 17/2/1
f 4/3/2 8/9/2 7/8/2 14/7/2 9/6/2 18/5/2 3/4/2
f 8/10/3 6/16/3 5/15/3 16/14/3 11/13/3 20/12/3 7/11/3
f 6/17/4 8/19/4 4/3/4 2/18/4
f 2/18/5 4/3/5 3/4/5 15/22/5 10/21/5 19/20/5 1/1/5
f 6/16/1 2/18/1 1/1/1 17/2/1 12/24/1 21/23/1 5/15/1
f 28/25/6 18/28/6 9/27/6 22/26/6
f 23/29/1 46/29/1 58/31/1 50/30/1 26/30/1
f 26/30/6 25/34/6 11/33/6 16/32/6
f 25/34/3 47/34/3 63/36/3 53/35/3 29/35/3
f 12/37/6 23/29/6 26/30/6 21/38/6
f 29/35/1 45/35/1 40/39/1 20/39/1
f 19/20/6 10/21/6 24/41/6 27/40/6
f 18/5/2 38/5/2 33/4/2 3/4/2
f 17/42/6 27/40/6 23/29/6 12/37/6
f 5/15/3 35/15/3 34/14/3 16/14/3
f 10/21/6 15/22/6 28/25/6 24/41/6
f 24/41/5 49/41/5 59/43/5 51/40/5 27/40/5
f 22/26/6 9/27/6 14/44/6 29/35/6
f 29/35/2 53/35/2 64/45/2 48/26/2 22/26/2
f 25/34/6 29/35/6 20/39/6 11/33/6
f 45/35/6 30/44/6 31/46/6 40/39/6
f 41/38/6 42/30/6 34/32/6 35/47/6
f 37/1/6 39/20/6 43/40/6 36/42/6
f 32/22/6 33/4/6 38/28/6 44/25/6
f 19/20/5 39/20/5 37/1/5 1/1/5
f 28/25/3 44/25/3 38/28/3 18/28/3
f 26/30/5 42/30/5 41/38/5 21/38/5
f 20/12/3 40/12/3 31/11/3 7/11/3
f 21/23/1 41/23/1 35/15/1 5/15/1
f 15/22/1 32/22/1 44/25/1 28/25/1
f 16/32/2 34/32/2 42/30/2 26/30/2
f 7/8/2 31/8/2 30/7/2 14/7/2
f 14/44/5 30/44/5 45/35/5 29/35/5
f 3/4/5 33/4/5 32/22/5 15/22/5
f 17/42/3 36/42/3 43/40/3 27/40/3
f 27/40/2 43/40/2 39/20/2 19/20/2
f 66/48/3 75/48/3 73/49/3 56/49/3
f 67/50/6 54/52/6 47/34/6 57/51/6
f 66/48/6 62/54/6 48/26/6 55/53/6
f 65/55/6 64/45/6 53/35/6 63/36/6
f 22/26/2 48/26/2 62/54/2 52/25/2 28/25/2
f 26/30/3 50/30/3 57/51/3 47/34/3 25/34/3
f 28/25/5 52/25/5 61/56/5 49/41/5 24/41/5
f 27/40/1 51/40/1 60/57/1 46/29/1 23/29/1
f 55/53/6 48/26/6 64/45/6 65/55/6
f 55/53/1 72/53/1 75/48/1 66/48/1
f 54/52/6 65/55/6 63/36/6 47/34/6
f 61/56/6 52/25/6 62/54/6 66/48/6
f 49/41/6 61/56/6 66/48/6 56/49/6
f 65/55/1 74/55/1 72/53/1 55/53/1
f 68/58/2 77/58/2 69/59/2 13/59/2
f 46/29/6 13/59/6 67/50/6 58/31/6
f 58/31/6 67/50/6 57/51/6 50/30/6
f 59/43/6 49/41/6 56/49/6 68/58/6
f 51/40/6 59/43/6 68/58/6 60/57/6
f 60/57/6 68/58/6 13/59/6 46/29/6
f 77/58/6 73/49/6 70/60/6 69/59/6
f 70/60/6 72/53/6 74/55/6 71/52/6
f 73/49/6 75/48/6 72/53/6 70/60/6
f 69/59/6 70/60/6 71/52/6 76/50/6
f 56/49/3 73/49/3 77/58/3 68/58/3
f 54/52/5 71/52/5 74/55/5 65/55/5
f 13/59/2 69/59/2 76/50/2 67/50/2
f 67/50/5 76/50/5 71/52/5 54/52/5
